<svg width="34" height="34" viewBox="0 0 34 34" fill="none" xmlns="http://www.w3.org/2000/svg">
<rect x="0.75" y="0.75" width="32.5" height="32.5" rx="16.25" stroke="#313031" stroke-width="1.5"/>
<path fill-rule="evenodd" clip-rule="evenodd" d="M13.2281 12.2005C13.0933 12.0704 12.9129 11.9984 12.7256 12C12.5384 12.0017 12.3592 12.0768 12.2268 12.2092C12.0943 12.3416 12.0192 12.5208 12.0176 12.7081C12.016 12.8954 12.088 13.0758 12.2181 13.2105L15.9988 16.9912L12.2181 20.7719C12.1498 20.8378 12.0954 20.9166 12.058 21.0038C12.0206 21.0909 12.0009 21.1847 12 21.2795C11.9992 21.3743 12.0173 21.4684 12.0532 21.5562C12.0891 21.644 12.1421 21.7237 12.2092 21.7908C12.2763 21.8579 12.356 21.9109 12.4438 21.9468C12.5316 21.9827 12.6257 22.0008 12.7205 22C12.8153 21.9991 12.9091 21.9794 12.9962 21.942C13.0834 21.9046 13.1622 21.8502 13.2281 21.7819L17.0088 18.0012L20.7895 21.7819C20.9242 21.912 21.1046 21.984 21.2919 21.9824C21.4792 21.9808 21.6584 21.9057 21.7908 21.7732C21.9232 21.6408 21.9983 21.4616 22 21.2744C22.0016 21.0871 21.9296 20.9067 21.7995 20.7719L18.0188 16.9912L21.7995 13.2105C21.9296 13.0758 22.0016 12.8954 22 12.7081C21.9983 12.5208 21.9232 12.3416 21.7908 12.2092C21.6584 12.0768 21.4792 12.0017 21.2919 12C21.1046 11.9984 20.9242 12.0704 20.7895 12.2005L17.0088 15.9812L13.2281 12.2005Z" fill="#313031"/>
</svg>
