<svg width="28" height="26" viewBox="0 0 28 26" fill="none" xmlns="http://www.w3.org/2000/svg">
<g clip-path="url(#clip0_203_352)">
<path d="M14.0492 10.3145C12.568 10.3145 11.3673 11.5059 11.3673 12.9756C11.3673 14.4453 12.568 15.6367 14.0492 15.6367C15.5304 15.6367 16.7311 14.4453 16.7311 12.9756C16.7311 11.5059 15.5304 10.3145 14.0492 10.3145Z" fill="#3787FF"/>
<path d="M27.998 12.9997C27.998 10.9105 26.0483 9.0782 22.9438 7.87232C22.9853 7.60076 23.0229 7.33213 23.0495 7.06841C23.3557 4.06648 22.6268 1.89983 20.998 0.966511C19.1757 -0.0775964 16.6017 0.680239 13.999 2.74689C11.3964 0.680239 8.82235 -0.0775964 7 0.966511C5.37124 1.89983 4.6423 4.06648 4.9485 7.06841C4.97517 7.33213 5.01171 7.60174 5.05418 7.87429C4.7954 7.97232 4.54155 8.07624 4.29759 8.18507C1.52603 9.42133 0 11.1331 0 12.9997C0 15.0889 1.94977 16.9213 5.05418 18.1271C5.01171 18.3987 4.97517 18.6673 4.9485 18.931C4.6423 21.933 5.37124 24.0996 7 25.0329C7.55998 25.348 8.19452 25.5091 8.83815 25.4996C10.381 25.4996 12.1826 24.6937 13.999 23.2526C15.8144 24.6937 17.617 25.4996 19.1618 25.4996C19.8055 25.509 20.44 25.3479 21 25.0329C22.6288 24.0996 23.3577 21.933 23.0515 18.931C23.0248 18.6673 22.9873 18.3987 22.9458 18.1271C26.0502 16.9232 28 15.0879 28 12.9997M19.15 1.82337C19.5638 1.81346 19.9729 1.91293 20.3353 2.1116C21.4662 2.75963 21.9739 4.51746 21.727 6.9341C21.7102 7.0988 21.6904 7.26547 21.6667 7.43311C20.3759 7.04727 19.0541 6.77208 17.7158 6.61057C16.9046 5.54024 16.0024 4.54084 15.0193 3.62335C16.5631 2.43905 18.0121 1.82337 19.149 1.82337M18.6186 15.6468C18.119 16.5074 17.5751 17.3418 16.9889 18.1467C15.9952 18.248 14.9969 18.2984 13.998 18.2977C12.9995 18.2984 12.0015 18.248 11.0082 18.1467C10.4235 17.3418 9.8812 16.5073 9.38338 15.6468C8.88385 14.7885 8.42987 13.905 8.02328 12.9997C8.42987 12.0945 8.88385 11.2109 9.38338 10.3527C9.88041 9.49557 10.4211 8.66412 11.0032 7.86154C11.9984 7.75772 12.9984 7.70601 13.999 7.70663C14.9976 7.70604 15.9955 7.75643 16.9889 7.85762C17.573 8.66143 18.1157 9.49419 18.6146 10.3527C19.1138 11.2111 19.5678 12.0946 19.9747 12.9997C19.5678 13.9048 19.1138 14.7883 18.6146 15.6468M20.6543 14.6664C20.9678 15.5148 21.2251 16.3827 21.4247 17.2644C20.5586 17.5324 19.6756 17.7436 18.7816 17.8967C19.1213 17.3882 19.4506 16.8592 19.7693 16.3095C20.0844 15.7664 20.3797 15.2183 20.6582 14.6703M12.1233 19.5614C12.7377 19.5987 13.3649 19.6202 14 19.6202C14.6351 19.6202 15.2663 19.5987 15.8816 19.5614C15.2982 20.2551 14.6696 20.91 14 21.5222C13.3318 20.9101 12.7049 20.2551 12.1233 19.5614ZM9.21744 17.8948C8.3231 17.7424 7.43982 17.5318 6.5733 17.2644C6.77209 16.3841 7.02845 15.5175 7.34076 14.6703C7.61535 15.2183 7.90969 15.7664 8.22972 16.3095C8.54974 16.8526 8.88063 17.3879 9.21744 17.8967M7.34076 11.3282C7.02957 10.4841 6.77387 9.62084 6.57528 8.74389C7.43964 8.47619 8.32056 8.26431 9.2125 8.10958C8.8747 8.61644 8.54381 9.14192 8.22478 9.68995C7.90574 10.238 7.61436 10.7792 7.33583 11.3282M15.8757 6.43705C15.2613 6.39979 14.6341 6.37822 13.9941 6.37822C13.3593 6.37822 12.7337 6.39783 12.1174 6.43705C12.699 5.74334 13.3259 5.08834 13.9941 4.47628C14.664 5.08818 15.2925 5.74318 15.8757 6.43705ZM19.7673 9.68995C19.4473 9.13963 19.1164 8.61023 18.7747 8.10173C19.6711 8.25484 20.5563 8.4664 21.4247 8.73506C21.2255 9.61527 20.9691 10.4818 20.6573 11.3292C20.3827 10.7811 20.0873 10.2331 19.7683 9.69093M6.27501 6.93508C6.02512 4.51942 6.53577 2.76061 7.66573 2.11258C8.02821 1.91422 8.43719 1.81477 8.851 1.82435C9.98787 1.82435 11.4369 2.44003 12.9807 3.62433C11.9969 4.54247 11.0941 5.54252 10.2822 6.61351C8.94434 6.77578 7.62267 7.04996 6.33131 7.43311C6.30859 7.26547 6.28785 7.09978 6.27205 6.93508M4.84479 9.39192C4.9969 9.32656 5.15197 9.2612 5.31 9.19584C5.62069 10.4969 6.04199 11.7694 6.56935 12.9997C6.04099 14.2325 5.61935 15.5077 5.30902 16.8115C2.7923 15.787 1.33343 14.3674 1.33343 12.9997C1.33343 11.7037 2.61747 10.389 4.84479 9.39192ZM7.66573 23.8869C6.53577 23.2388 6.02512 21.48 6.27501 19.0644C6.29081 18.8997 6.31156 18.734 6.33427 18.5654C7.62514 18.9511 8.94694 19.2263 10.2852 19.3879C11.0967 20.4586 11.9988 21.4587 12.9817 22.3771C10.8294 24.0271 8.86285 24.5712 7.66869 23.8869M21.726 19.0644C21.9729 21.481 21.4652 23.2388 20.3343 23.8869C19.1411 24.5731 17.1736 24.0271 15.0223 22.3771C16.0048 21.4586 16.9066 20.4586 17.7178 19.3879C19.056 19.2264 20.3779 18.9512 21.6687 18.5654C21.6924 18.734 21.7122 18.8997 21.7289 19.0644M22.6949 16.8095C22.3837 15.5065 21.9618 14.232 21.4336 12.9997C21.9615 11.7668 22.3832 10.4917 22.6939 9.188C25.2057 10.2125 26.6685 11.6321 26.6685 12.9997C26.6685 14.3674 25.2097 15.787 22.693 16.8115" fill="#3787FF"/>
</g>
<defs>
<clipPath id="clip0_203_352">
<rect width="28" height="25" fill="white" transform="translate(0 0.5)"/>
</clipPath>
</defs>
</svg>
