<svg width="69" height="20" viewBox="0 0 69 20" fill="none" xmlns="http://www.w3.org/2000/svg">
<rect x="0.5" width="68" height="20" rx="4" fill="black"/>
<g clip-path="url(#clip0_220_774)">
<path d="M16.4392 6H15.1044V12.7689H16.4392V6Z" fill="white"/>
<path d="M13.5711 6.37876H12.2363V13.1475H13.5711V6.37876Z" fill="white"/>
<path d="M10.703 6.80162H9.36814V13.5716H10.703V6.80162Z" fill="white"/>
<path d="M7.83482 7.22917H6.5L6.50001 14H7.83482L7.83482 7.22917Z" fill="white"/>
<path d="M51.694 9.60607L49.5448 7.21646H48.2883V12.7492H49.6002V9.21922L51.5624 11.3106H51.8048L53.7333 9.21922V12.7492H55.0451V7.21646H53.7887L51.694 9.60607Z" fill="white"/>
<path d="M61.2951 7.21646L58.0435 10.8126V7.21646H56.7317V12.7492H57.9335L61.1851 9.15313V12.7492H62.497V7.21646H61.2951Z" fill="white"/>
<path d="M41.2223 9.24098C41.2223 10.1219 41.704 10.8158 42.4434 11.1067L41.0569 12.7492H42.6626L43.9239 11.255H45.2887V12.7492H46.6006V7.21646H43.2607C42.0155 7.21646 41.2223 8.06834 41.2223 9.24098ZM45.2895 8.43504V10.0711H43.504C42.9082 10.0711 42.5887 9.73905 42.5887 9.25226C42.5887 8.76548 42.9195 8.43343 43.504 8.43343L45.2895 8.43504Z" fill="white"/>
<path d="M35.1261 8.32302C35.0458 10.2258 34.6444 11.4541 33.8584 11.4541H33.6617V12.7823L33.8712 12.7936C35.4472 12.8814 36.3183 11.4984 36.4612 8.47776H38.5342V12.7492H39.8437V7.21646H35.1702L35.1261 8.32302Z" fill="white"/>
<path d="M30.1878 7.13916C28.4135 7.13916 27.1369 8.36741 27.1369 9.98251C27.1369 11.6532 28.5259 12.838 30.1878 12.838C31.9187 12.838 33.2635 11.5871 33.2635 9.98251C33.2635 8.37789 31.9187 7.13916 30.1878 7.13916ZM30.1878 11.5098C29.185 11.5098 28.5018 10.857 28.5018 9.98251C28.5018 9.08631 29.1858 8.45123 30.1878 8.45123C31.1898 8.45123 31.8963 9.11532 31.8963 9.98251C31.8963 10.8497 31.1801 11.5098 30.1878 11.5098Z" fill="white"/>
<path d="M25.7456 7.2269H21.1156L21.0714 8.33345C21.0056 9.9276 20.5897 11.4436 19.8037 11.4653L19.44 11.4766V13.9998L20.7631 13.9971V12.75H25.3594V13.9971H26.6938V11.4653H25.7456V7.2269ZM24.4338 11.4653H21.6342C22.1079 10.7464 22.3616 9.70597 22.4057 8.489H24.4338V11.4653Z" fill="white"/>
</g>
<defs>
<clipPath id="clip0_220_774">
<rect width="56" height="8" fill="white" transform="translate(6.5 6)"/>
</clipPath>
</defs>
</svg>
