<svg width="34" height="34" viewBox="0 0 34 34" fill="none" xmlns="http://www.w3.org/2000/svg">
<rect x="0.75" y="0.75" width="32.5" height="32.5" rx="16.25" stroke="white" stroke-width="1.5"/>
<path d="M15.5708 18.8375L20.5146 13.8938C20.6313 13.7771 20.7674 13.7188 20.9229 13.7188C21.0785 13.7188 21.2146 13.7771 21.3313 13.8938C21.4479 14.0104 21.5063 14.1491 21.5063 14.3097C21.5063 14.4703 21.4479 14.6087 21.3313 14.725L15.9792 20.0917C15.8625 20.2083 15.7264 20.2667 15.5708 20.2667C15.4153 20.2667 15.2792 20.2083 15.1625 20.0917L12.6542 17.5833C12.5375 17.4667 12.4815 17.3282 12.4862 17.168C12.4908 17.0078 12.5517 16.8691 12.6688 16.7521C12.7858 16.635 12.9244 16.5767 13.0847 16.5771C13.2449 16.5775 13.3833 16.6358 13.5 16.7521L15.5708 18.8375Z" fill="white"/>
</svg>
