<svg width="13" height="14" viewBox="0 0 13 14" fill="none" xmlns="http://www.w3.org/2000/svg">
<path d="M7.52066 7.03229L12.1659 11.8882L12.0711 11.9763L12.0311 12.015C10.7304 13.1994 9.02605 13.8149 7.28511 13.729C5.54417 13.6432 3.90592 12.8627 2.72315 11.5558C1.54038 10.2489 0.907715 8.52012 0.961411 6.74168C1.01511 4.96325 1.75086 3.27748 3.01023 2.04742C4.30505 0.837805 6.01458 0.197658 7.76848 0.265654C9.52238 0.333651 11.1794 1.10432 12.3806 2.4107L7.52066 7.03229Z" fill="#01B94F"/>
<path d="M3.01447 2.04518C4.3091 0.836625 6.01798 0.197319 7.77102 0.265716C9.52407 0.334112 11.1802 1.1047 12.3807 2.41061C12.3807 2.41061 8.51668 6.10358 8.43877 6.16807C8.43877 6.16807 7.57332 6.99996 7.57964 7.01285C7.58596 7.02575 12.1574 11.8687 12.1574 11.8687L12.0648 11.959L12.0248 11.9977C9.29579 14.4482 5.11386 14.3365 2.64387 11.6108C1.45769 10.2886 0.831125 8.54162 0.900533 6.75012C0.969942 4.95863 1.72971 3.26763 3.01447 2.04518Z" fill="url(#paint0_radial_220_43)"/>
<path d="M3.01652 2.04097C4.31218 0.834012 6.02115 0.19616 7.77388 0.265348C9.5266 0.334536 11.1822 1.1052 12.3827 2.4107C12.3827 2.4107 8.62191 6.02199 8.4682 6.14881C8.4682 6.14881 7.62591 6.96995 7.64065 6.99575C7.67224 7.07313 12.1511 11.8473 12.1511 11.8473L12.0584 11.9376L12.0184 11.9763C9.29574 14.4225 5.1117 14.3022 2.65013 11.5851C1.46574 10.2665 0.839674 8.52364 0.908299 6.73602C0.976925 4.94841 1.73468 3.26088 3.01652 2.04097Z" fill="url(#paint1_radial_220_43)"/>
<path d="M3.0208 2.03885C4.31651 0.83347 6.02472 0.196807 7.77643 0.266389C9.52814 0.33597 11.1827 1.10621 12.3828 2.41072C12.3828 2.41072 8.72937 5.93818 8.49353 6.12949C8.49353 6.12949 7.68073 6.93773 7.69547 6.97642C7.7439 7.0925 12.1427 11.828 12.1427 11.828L12.048 11.9183L12.008 11.9548C9.2937 14.3946 5.11176 14.2699 2.6544 11.5593C1.47192 10.2445 0.846809 8.50556 0.915449 6.722C0.984089 4.93843 1.74091 3.25496 3.0208 2.03885Z" fill="url(#paint2_radial_220_43)"/>
<path d="M3.02298 2.0368C4.31886 0.832351 6.02677 0.196472 7.77797 0.266451C9.52917 0.33643 11.1832 1.10665 12.3828 2.41083C12.3828 2.41083 8.83473 5.85015 8.52098 6.11025C8.52098 6.11025 7.73345 6.90774 7.7545 6.95933C7.81767 7.1141 12.1344 11.8088 12.1344 11.8088L12.0417 11.8969C12.0417 11.8969 12.0017 11.9335 12.0017 11.9356C9.29378 14.3668 5.11184 14.2335 2.6608 11.5336C1.48021 10.2228 0.855663 8.48831 0.923522 6.70898C0.991381 4.92965 1.74613 3.25 3.02298 2.0368Z" fill="url(#paint3_radial_220_43)"/>
<path d="M3.02709 2.03271C4.32329 0.830116 6.0306 0.195802 7.78079 0.266576C9.53097 0.33735 11.1838 1.10754 12.3827 2.41104C12.3827 2.41104 8.94202 5.77297 8.54825 6.09111C8.54825 6.09111 7.78598 6.8757 7.81125 6.94019C7.89127 7.13365 12.128 11.7875 12.1258 11.7896L12.0332 11.8778L11.9932 11.9165C9.29156 14.3369 5.11174 14.2015 2.66701 11.508C1.48847 10.2005 0.864793 8.47 0.932263 6.69455C0.999733 4.91909 1.75286 3.24307 3.02709 2.03271Z" fill="url(#paint4_radial_220_43)"/>
<path d="M3.02924 2.03018C4.32561 0.828511 6.03262 0.194979 7.7823 0.266151C9.53198 0.337323 11.1842 1.1075 12.3828 2.41065C12.3828 2.41065 9.04735 5.69091 8.57568 6.06493C8.57568 6.06493 7.83868 6.83663 7.87026 6.91402C7.96502 7.14617 12.1196 11.7592 12.1196 11.7592L12.0269 11.8688L11.9869 11.9053C9.28951 14.3086 5.11179 14.1688 2.67127 11.4819C1.4949 10.1781 0.872152 8.45183 0.939235 6.6806C1.00632 4.90937 1.75777 3.23734 3.02924 2.03018Z" fill="url(#paint5_radial_220_43)"/>
<path d="M3.03343 2.02814C4.32996 0.827395 6.03667 0.194645 7.78584 0.266215C9.53502 0.337784 11.1866 1.10794 12.3849 2.41076C12.3849 2.41076 9.15472 5.60933 8.60513 6.06504C8.60513 6.06504 7.8913 6.82384 7.92709 6.91412C8.04712 7.17422 12.1132 11.7485 12.1111 11.7485L12.0185 11.8366L11.9785 11.8753C9.28948 14.2807 5.11176 14.1345 2.67756 11.4562C1.50283 10.1564 0.880662 8.43427 0.947365 6.6671C1.01407 4.89993 1.7642 3.23179 3.03343 2.02814Z" fill="url(#paint6_radial_220_43)"/>
<path d="M3.03546 2.02413C4.33242 0.824587 6.03898 0.192995 7.78765 0.265364C9.53632 0.337733 11.1872 1.10827 12.3848 2.41105C12.3848 2.41105 9.25992 5.52579 8.63242 6.03524C8.63242 6.03524 7.94386 6.78329 7.98597 6.89507C8.11232 7.20461 12.1047 11.7381 12.1026 11.7381C12.1005 11.7381 12.0163 11.8219 12.01 11.8262L11.97 11.8627C9.2873 14.2531 5.10958 14.1026 2.6817 11.4393C1.50588 10.1427 0.882616 8.42251 0.948954 6.65693C1.01529 4.89135 1.7658 3.22494 3.03546 2.02413Z" fill="url(#paint7_radial_220_43)"/>
<path d="M3.03976 2.02153C4.33678 0.823564 6.04258 0.193158 7.79024 0.26592C9.53789 0.338681 11.1877 1.1088 12.3849 2.4106C12.3849 2.4106 9.36741 5.44365 8.65989 6.01544C8.65989 6.01544 7.9966 6.75059 8.04503 6.87527C8.18611 7.2235 12.0964 11.7161 12.0964 11.7183L12.0038 11.8064L11.9637 11.8429C9.28739 14.2333 5.10967 14.0763 2.69864 11.413C1.52418 10.1213 0.900345 8.40633 0.964315 6.64517C1.02828 4.88402 1.77482 3.2209 3.03976 2.02153Z" fill="url(#paint8_radial_220_43)"/>
<path d="M3.04181 2.01949C4.33899 0.822452 6.04449 0.192826 7.79164 0.265985C9.53879 0.339144 11.1881 1.10924 12.3848 2.41071C12.3848 2.41071 9.47264 5.35993 8.67879 5.9962C8.67879 5.9962 8.04708 6.72061 8.09341 6.85603C8.25765 7.23651 12.09 11.6883 12.0879 11.6904L11.9953 11.7764C11.9953 11.7764 11.9595 11.8108 11.9553 11.8151C9.28524 14.1968 5.10962 14.0335 2.69016 11.3852C2.11081 10.7467 1.66033 9.99792 1.36446 9.18167C1.06859 8.36543 0.933108 7.49768 0.965762 6.62799C0.998417 5.75829 1.19856 4.90368 1.55477 4.11295C1.91098 3.32222 2.41628 2.61086 3.04181 2.01949Z" fill="url(#paint9_radial_220_43)"/>
<path d="M3.04612 2.01542C4.34361 0.820229 6.04852 0.192163 7.79466 0.266117C9.5408 0.34007 11.1889 1.11014 12.3849 2.41094C12.3849 2.41094 9.58013 5.27847 8.71469 5.97708C8.71469 5.97708 8.10193 6.69074 8.16089 6.83691C8.33355 7.26683 12.0817 11.6756 12.0817 11.6778L11.9891 11.7637L11.9491 11.8003C9.28323 14.1691 5.10972 14.0015 2.69868 11.3553C1.5317 10.0696 0.912719 8.36343 0.977874 6.61193C1.04303 4.86042 1.78698 3.20705 3.04612 2.01542Z" fill="url(#paint10_radial_220_43)"/>
<path d="M3.04816 2.01308C4.34616 0.81869 6.05111 0.191346 7.79709 0.265694C9.54307 0.340043 11.1909 1.11016 12.387 2.41076C12.387 2.41076 9.68535 5.20521 8.74199 5.95971C8.74199 5.95971 8.1566 6.65832 8.21767 6.81954C8.40718 7.2774 12.0753 11.6539 12.0732 11.6539L11.9806 11.7421L11.9406 11.7786C9.28316 14.1431 5.10964 13.9712 2.70493 11.3336C2.1274 10.6989 1.67811 9.95422 1.38276 9.1421C1.08742 8.32999 0.951805 7.46639 0.983683 6.60073C1.01556 5.73506 1.21431 4.8843 1.56855 4.09711C1.92279 3.30992 2.42558 2.60174 3.04816 2.01308Z" fill="url(#paint11_radial_220_43)"/>
<path d="M3.05239 2.01098C4.35044 0.818161 6.05464 0.192 7.7996 0.26674C9.54457 0.341481 11.1914 1.11117 12.387 2.4108C12.387 2.4108 9.79276 5.11282 8.76939 5.9404C8.76939 5.9404 8.20927 6.62827 8.27665 6.80023C8.48723 7.30323 12.0669 11.6346 12.0669 11.6368L11.9743 11.7249C11.9743 11.7249 11.9385 11.7572 11.9364 11.7615C9.28318 14.126 5.11177 13.939 2.71127 11.31C0.310761 8.68111 0.430786 4.43785 3.05239 2.01098Z" fill="url(#paint12_radial_220_43)"/>
<path d="M3.05444 2.00649C4.35292 0.814875 6.05697 0.189868 7.80143 0.265408C9.54589 0.340947 11.192 1.11102 12.3869 2.41061C12.3869 2.41061 9.89799 5.02665 8.80723 5.91657C8.80723 5.91657 8.27028 6.59154 8.34398 6.7764C8.56507 7.3181 12.0669 11.6086 12.0669 11.6108L11.9742 11.6968L11.9342 11.7333C9.27891 14.0828 5.09908 13.9001 2.71542 11.2776C0.331766 8.65513 0.439157 4.42692 3.05444 2.00649Z" fill="url(#paint13_radial_220_43)"/>
<path d="M3.05868 2.00439C4.3572 0.814349 6.06049 0.190523 7.80394 0.266455C9.54739 0.342387 11.1924 1.11204 12.387 2.41066C12.387 2.41066 10.0054 4.94716 8.82621 5.90157C8.82621 5.90157 8.31452 6.56579 8.39243 6.7614C8.63038 7.33964 12.0479 11.5894 12.0479 11.5915L11.9553 11.6775L11.9153 11.714C9.27894 14.0549 5.09911 13.8658 2.71966 11.2519C0.340209 8.63798 0.447601 4.41622 3.05868 2.00439Z" fill="url(#paint14_radial_220_43)"/>
<path d="M3.06076 2.00236C4.35944 0.813243 6.06243 0.190195 7.80537 0.266523C9.54832 0.342852 11.1928 1.11249 12.3869 2.41078C12.3869 2.41078 10.1107 4.8656 8.85356 5.88235C8.85356 5.88235 8.36714 6.52722 8.45137 6.74218C8.70405 7.3548 12.0479 11.5701 12.0479 11.5723L11.9574 11.6583L11.9174 11.6948C9.2768 14.0185 5.09908 13.8336 2.72595 11.224C0.352818 8.61446 0.453892 4.40774 3.06076 2.00236Z" fill="url(#paint15_radial_220_43)"/>
<path d="M3.06502 1.99814C4.36459 0.811248 6.06722 0.190038 7.80934 0.267151C9.55146 0.344264 11.195 1.11359 12.3891 2.41086C12.3891 2.41086 10.2181 4.77539 8.8894 5.86308C8.8894 5.86308 8.42825 6.50795 8.51669 6.72291C8.77779 7.38068 12.048 11.5487 12.0353 11.5509L11.9427 11.6368C11.9303 11.6501 11.917 11.6624 11.9027 11.6734C9.27685 13.9992 5.09913 13.8036 2.73231 11.2005C0.365502 8.59734 0.466575 4.39707 3.06502 1.99814Z" fill="url(#paint16_radial_220_43)"/>
<path d="M3.06716 1.99584C4.36829 0.810733 6.07194 0.19224 7.81391 0.272577C9.55589 0.352914 11.198 1.12571 12.3891 2.42576C12.3891 2.42576 10.3234 4.70001 8.90838 5.85003C8.90838 5.85003 8.4725 6.47771 8.56726 6.70986C8.85153 7.40847 12.029 11.5378 12.0269 11.54C12.0248 11.5421 11.949 11.6152 11.9343 11.6259L11.8964 11.6625C9.27478 13.9711 5.09916 13.7648 2.73656 11.1745C0.373958 8.58429 0.466609 4.38617 3.06716 1.99584Z" fill="url(#paint17_radial_220_43)"/>
<path d="M3.07132 1.99362C4.37199 0.809302 6.07483 0.19127 7.81595 0.271605C9.55708 0.351939 11.1984 1.12427 12.3891 2.42354C12.3891 2.42354 10.4308 4.62256 8.93571 5.83277C8.93571 5.83277 8.5251 6.44754 8.62407 6.6926C8.92518 7.4299 12.0227 11.5184 12.0185 11.5205L11.9279 11.6065L11.8879 11.6431C9.27263 13.9431 5.09911 13.7325 2.74283 11.1487C0.386541 8.56488 0.477086 4.37535 3.07132 1.99362Z" fill="url(#paint18_radial_220_43)"/>
<path d="M3.07337 1.98099C4.37416 0.797835 6.07644 0.180546 7.81689 0.260868C9.55733 0.341189 11.1981 1.11276 12.389 2.4109C12.389 2.4109 10.536 4.52824 8.96513 5.80079C8.96513 5.80079 8.57768 6.40267 8.68297 6.66062C8.99883 7.43661 12.0142 11.4864 12.0121 11.4886L11.9194 11.5746L11.8794 11.6089C9.27257 13.9154 5.09906 13.6983 2.74698 11.1253C0.394911 8.55225 0.485456 4.36487 3.07337 1.98099Z" fill="url(#paint19_radial_220_43)"/>
<path d="M3.07758 1.98073C4.37791 0.798357 6.07938 0.18153 7.81897 0.261848C9.55857 0.342167 11.1985 1.11327 12.389 2.41064C11.3421 3.62238 10.2067 4.75129 8.99251 5.78763C8.99251 5.78763 8.63033 6.37876 8.74193 6.64746C9.07252 7.46215 12.0058 11.469 12.0037 11.4733L11.9131 11.5571L11.8731 11.5936C9.27046 13.8872 5.09906 13.6658 2.7533 11.0992C0.40754 8.53264 0.491769 4.34526 3.07758 1.98073Z" fill="url(#paint20_radial_220_43)"/>
<path d="M3.07969 1.98085C4.38026 0.799002 6.08162 0.182516 7.82105 0.262827C9.56048 0.343138 11.2004 1.11389 12.3911 2.41077C11.3589 3.6192 10.2322 4.73996 9.022 5.76196C9.022 5.76196 8.68719 6.34019 8.81143 6.62179C9.15887 7.48162 12.0121 11.4433 12.0079 11.4454L11.9173 11.5314L11.8773 11.568C9.27047 13.8573 5.09906 13.6316 2.75752 11.0736C0.415972 8.51556 0.5002 4.34539 3.07969 1.98085Z" fill="url(#paint21_radial_220_43)"/>
<path d="M3.0839 1.98085C4.38448 0.800816 6.08481 0.185472 7.82307 0.265765C9.56132 0.346058 11.2003 1.11565 12.3911 2.41077C11.3751 3.62007 10.2561 4.73504 9.04727 5.74261C9.04727 5.74261 8.73773 6.3101 8.85775 6.60244C9.21993 7.50312 11.991 11.439 11.9889 11.439C11.9868 11.439 11.9152 11.5099 11.8963 11.525L11.8584 11.5594C9.26836 13.8293 5.09906 13.5886 2.76383 11.0478C0.428604 8.50697 0.506515 4.34539 3.0839 1.98085Z" fill="url(#paint22_radial_220_43)"/>
<path d="M3.08603 1.98079C4.38649 0.801401 6.08637 0.186457 7.82411 0.266745C9.56186 0.347032 11.2004 1.11622 12.3912 2.4107C11.3916 3.6222 10.2811 4.73355 9.07466 5.72965C9.07466 5.72965 8.79039 6.28424 8.91463 6.58948C9.29576 7.52024 11.9847 11.4088 11.9805 11.411L11.89 11.4948L11.85 11.5314C9.26628 13.8035 5.09909 13.5649 2.77018 11.0219C0.441264 8.47896 0.514964 4.32382 3.08603 1.98079Z" fill="url(#paint23_radial_220_43)"/>
<path d="M3.08817 1.98072C4.38852 0.801986 6.08794 0.187442 7.82518 0.267725C9.56242 0.348007 11.2005 1.11678 12.3912 2.41064C11.4087 3.62426 10.3058 4.73074 9.09997 5.71239C9.09997 5.71239 8.84097 6.25408 8.97152 6.57222C9.36739 7.54168 11.9743 11.3873 11.9722 11.3916L11.8795 11.4754L11.8395 11.5119C9.26632 13.7733 5.09912 13.5304 2.78284 10.996C0.466564 8.46169 0.523418 4.31301 3.08817 1.98072Z" fill="url(#paint24_radial_220_43)"/>
<path d="M3.09238 1.98108C4.3925 0.803644 6.09101 0.189901 7.82723 0.270172C9.56346 0.350444 11.2007 1.11841 12.3912 2.411C11.4271 3.62503 10.3339 4.72592 9.13156 5.6934C9.13156 5.6934 8.89572 6.22434 9.03259 6.55323C9.45373 7.56138 11.9806 11.3683 11.9658 11.3726L11.8753 11.4564L11.8353 11.4908C9.26422 13.7457 5.09912 13.4964 2.78284 10.9706C0.466565 8.44485 0.529736 4.30262 3.09238 1.98108Z" fill="url(#paint25_radial_220_43)"/>
<path d="M3.0944 1.98115C4.39464 0.804878 6.09257 0.191872 7.82813 0.272131C9.56369 0.35239 11.2004 1.1196 12.3911 2.41107C11.4464 3.62774 10.3611 4.72337 9.15884 5.67413C9.15884 5.67413 8.94827 6.19218 9.08935 6.53396C9.51049 7.5808 11.9615 11.3469 11.9573 11.349C11.9531 11.3512 11.8878 11.4156 11.8668 11.4328L11.8268 11.4694C9.26412 13.7178 5.09903 13.4642 2.78275 10.9449C0.466474 8.42559 0.538068 4.29195 3.0944 1.98115Z" fill="url(#paint26_radial_220_43)"/>
<path d="M3.09862 1.96791C4.40033 0.79391 6.09875 0.183549 7.83383 0.266212C9.56891 0.348874 11.2043 1.11806 12.3932 2.41072C12.3932 2.41072 11.3867 3.87243 9.18621 5.65443C9.18621 5.65443 9.00091 6.16173 9.14831 6.51426C9.59051 7.58905 11.9531 11.3272 11.951 11.3293L11.8584 11.4131L11.8205 11.4497C9.26202 13.6895 5.09904 13.4294 2.78276 10.9187C0.466484 8.40804 0.544396 4.28085 3.09862 1.96791Z" fill="url(#paint27_radial_220_43)"/>
<path d="M3.10077 1.9636C4.40314 0.791298 6.1013 0.182421 7.83572 0.265874C9.57015 0.349326 11.2047 1.11856 12.3933 2.41071C12.3933 2.41071 11.4941 3.78214 9.21364 5.63507C9.12867 5.91512 9.12867 6.21486 9.21364 6.4949C9.67268 7.61913 11.9511 11.3035 11.9511 11.3078L11.8605 11.3916L11.8205 11.426C9.25997 13.6616 5.09909 13.3972 2.79755 10.8951C0.496013 8.39298 0.552867 4.27224 3.10077 1.9636Z" fill="url(#paint28_radial_220_43)"/>
<path d="M3.105 1.96174C4.40694 0.789983 6.10457 0.181602 7.8383 0.26546C9.57204 0.349319 11.2057 1.11883 12.3933 2.411C12.3933 2.411 11.5994 3.70075 9.23472 5.60742C9.16032 5.89023 9.16837 6.18905 9.25788 6.46725C9.73167 7.64522 11.9384 11.2909 11.9342 11.2952L11.8437 11.379L11.8058 11.4134C9.25999 13.6339 5.09911 13.3738 2.80178 10.8696C0.504455 8.36533 0.561309 4.26179 3.105 1.96174Z" fill="url(#paint29_radial_220_43)"/>
<path d="M3.10717 1.95924C4.40925 0.788403 6.10658 0.180794 7.83981 0.265049C9.57304 0.349303 11.2061 1.11881 12.3933 2.41065C12.3933 2.41065 11.7069 3.62516 9.26847 5.59847C9.20981 5.88469 9.228 6.18177 9.32111 6.4583C9.81174 7.65991 11.9322 11.2648 11.928 11.269L11.8374 11.3507L11.7974 11.3873C9.25794 13.6056 5.09917 13.3283 2.80816 10.8434C0.481352 8.32413 0.567686 4.25069 3.10717 1.95924Z" fill="url(#paint30_radial_220_43)"/>
<path d="M3.11127 1.95536C4.41388 0.786873 6.11049 0.181144 7.84256 0.266183C9.57464 0.351221 11.2065 1.12036 12.3932 2.41107C12.3932 2.41107 11.8121 3.5353 9.29573 5.57095C9.25231 5.86022 9.28129 6.15601 9.37996 6.43078C9.88533 7.67109 11.9237 11.2372 11.9194 11.2394L11.8289 11.3232L11.7889 11.3576C9.26204 13.5609 5.10327 13.2922 2.81226 10.803C0.521247 8.31381 0.575996 4.24036 3.11127 1.95536Z" fill="url(#paint31_radial_220_43)"/>
<path d="M3.11347 1.95307C4.41658 0.785358 6.11324 0.180339 7.84515 0.265771C9.57707 0.351203 11.2087 1.1204 12.3954 2.41093C12.3954 2.41093 11.9195 3.45132 9.32531 5.55146C9.29689 5.8432 9.33584 6.13768 9.43901 6.41129C9.95912 7.70748 11.9153 11.2242 11.9111 11.2349L11.8206 11.3188L11.7827 11.3532C9.25582 13.5479 5.09915 13.262 2.81867 10.7943C0.502397 8.28787 0.584519 4.22947 3.11347 1.95307Z" fill="url(#paint32_radial_220_43)"/>
<path d="M3.11764 1.95086C4.42055 0.784208 6.11656 0.180021 7.84763 0.265851C9.5787 0.351681 11.2094 1.12081 12.3954 2.41087C12.3954 2.41087 12.0248 3.37818 9.35265 5.54066C9.34072 5.83435 9.38951 6.12732 9.49583 6.40049C10.0328 7.72678 11.909 11.2112 11.9048 11.2241L11.8142 11.3058L11.7742 11.3402C9.25368 13.5199 5.09912 13.2297 2.82285 10.7663C0.512883 8.26847 0.590795 4.21867 3.11764 1.95086Z" fill="url(#paint33_radial_220_43)"/>
<path d="M3.11981 1.94657C4.42335 0.781608 6.11911 0.1789 7.84952 0.265519C9.57994 0.352138 11.2098 1.12131 12.3954 2.41087C12.3954 2.41087 12.1322 3.29435 9.38007 5.52131C9.38461 5.82009 9.44389 6.11537 9.55484 6.39189C10.1086 7.74827 11.9006 11.1919 11.8964 11.1962L11.8058 11.2779L11.7679 11.3123C9.25373 13.4919 5.09917 13.1953 2.82922 10.7405C0.523469 8.25127 0.599274 4.20792 3.11981 1.94657Z" fill="url(#paint34_radial_220_43)"/>
<path d="M3.12393 1.94438C4.42821 0.783999 6.12245 0.185138 7.85037 0.273734C9.57828 0.362331 11.2052 1.13148 12.389 2.41943C12.389 2.41943 12.2311 3.21263 9.40104 5.50192C9.42548 5.80169 9.49656 6.09557 9.61161 6.3725C10.1823 7.76972 11.8942 11.1725 11.89 11.1768L11.7994 11.2585C11.7852 11.2688 11.7718 11.2803 11.7594 11.2929C9.25154 13.4639 5.09908 13.1587 2.83545 10.7146C0.533908 8.23188 0.605502 4.19928 3.12393 1.94438Z" fill="url(#paint35_radial_220_43)"/>
<path d="M3.12602 1.94229C4.43034 0.781672 6.12485 0.18285 7.85293 0.271856C9.58101 0.360862 11.2079 1.13075 12.3911 2.4195C12.3911 2.4195 12.3406 3.13101 9.43051 5.48264C9.47185 5.78274 9.55112 6.07609 9.66635 6.35537C10.2559 7.78484 11.8858 11.1511 11.8816 11.1554L11.791 11.2371C11.7784 11.2371 11.7636 11.2629 11.751 11.2715C9.24942 13.4361 5.09907 13.1287 2.83964 10.6889C0.544422 8.21476 0.61391 4.1886 3.12602 1.94229Z" fill="url(#paint36_radial_220_43)"/>
<path d="M3.1302 1.93772C4.4355 0.778659 6.1301 0.18125 7.85788 0.271042C9.58565 0.360834 11.2121 1.13083 12.3953 2.41922C12.3953 2.41922 12.4501 3.0555 9.46206 5.46517C9.52325 5.76381 9.61354 6.05546 9.73159 6.33575C10.3317 7.81036 11.8815 11.1315 11.8752 11.1358C11.8689 11.1401 11.8141 11.1938 11.7847 11.2174L11.7467 11.2518C9.25149 13.4122 5.09903 13.094 2.84593 10.6628C0.552815 8.19513 0.622304 4.17758 3.1302 1.93772Z" fill="url(#paint37_radial_220_43)"/>
<path d="M3.13238 1.93564C4.43798 0.776614 6.13301 0.179618 7.86095 0.270221C9.58889 0.360823 11.2151 1.13196 12.3975 2.42145C12.3975 2.42145 12.5575 2.96529 9.49161 5.44591C9.57033 5.74332 9.66883 6.0349 9.78641 6.31863C10.4034 7.82334 11.8711 11.1122 11.8668 11.1165L11.7763 11.1982L11.7363 11.2326C9.24945 13.3735 5.09911 13.0597 2.85022 10.6393C0.563419 8.17587 0.628696 4.16691 3.13238 1.93564Z" fill="url(#paint38_radial_220_43)"/>
<path d="M3.13666 1.9337C4.44253 0.774943 6.13771 0.17832 7.86567 0.269323C9.59362 0.360327 11.2197 1.13187 12.4018 2.42166C12.4018 2.42166 12.6629 2.88166 9.52117 5.42031C9.52117 5.42031 9.63698 5.78144 9.84755 6.29304C10.4793 7.84504 11.8648 11.0866 11.8606 11.0909L11.7701 11.1726L11.7322 11.2048C9.24743 13.3522 5.09918 13.0277 2.8566 10.6137C0.574016 8.15672 0.637188 4.15636 3.13666 1.9337Z" fill="url(#paint39_radial_220_43)"/>
<path d="M11.8501 11.0779C9.39059 13.3349 5.13917 13.0361 2.86079 10.5792C0.582418 8.12222 0.643483 4.13045 3.13875 1.92069C4.44536 0.762979 6.14075 0.167435 7.86855 0.259233C9.59636 0.35103 11.222 1.12302 12.4039 2.41294C12.4039 2.41294 12.7766 2.79127 9.55273 5.3987C9.54641 5.4073 11.8585 11.0714 11.8501 11.0779Z" fill="url(#paint40_radial_220_43)"/>
<path d="M9.45369 5.47998C8.44506 6.32476 7.2048 7.32002 5.76239 8.43565C6.83392 9.61857 8.08012 10.6231 9.4558 11.4128C10.6371 12.0577 11.5615 12.1781 12.0142 11.7696C12.467 11.3612 12.4122 10.4197 11.8858 9.19015C11.2625 7.83559 10.4426 6.58479 9.45369 5.47998Z" fill="url(#paint41_linear_220_43)"/>
<path d="M9.54421 5.396L9.03884 5.82591C9.96417 6.8643 10.7334 8.03713 11.3214 9.30608C11.8373 10.5184 11.8247 11.1268 11.6583 11.2794C11.492 11.432 10.7739 11.4707 9.62633 10.8495C8.35507 10.1135 7.2053 9.17772 6.2193 8.07652L5.65497 8.50643L5.78763 8.63756C8.17761 11.159 10.7634 12.5949 11.9005 12.0726C11.9342 12.0554 11.9679 12.0382 11.9995 12.0188H12.0121C12.0561 11.991 12.0976 11.9593 12.1363 11.9243C12.1773 11.8864 12.2147 11.8447 12.2479 11.7996C12.9913 10.8043 11.8626 8.12381 9.6137 5.49703L9.54421 5.396Z" fill="#84EEB1"/>
<defs>
<radialGradient id="paint0_radial_220_43" cx="0" cy="0" r="1" gradientUnits="userSpaceOnUse" gradientTransform="translate(9.19864 1.01459) rotate(-2.33828) scale(30.3158 22.9)">
<stop stop-color="#03BA50"/>
<stop offset="0.8" stop-color="#01B64E"/>
</radialGradient>
<radialGradient id="paint1_radial_220_43" cx="0" cy="0" r="1" gradientUnits="userSpaceOnUse" gradientTransform="translate(9.19551 1.01219) rotate(-2.33828) scale(30.2526 22.8523)">
<stop stop-color="#04BC50"/>
<stop offset="0.8" stop-color="#01B34D"/>
</radialGradient>
<radialGradient id="paint2_radial_220_43" cx="0" cy="0" r="1" gradientUnits="userSpaceOnUse" gradientTransform="translate(9.18835 1.01801) rotate(-2.33828) scale(30.1894 22.8045)">
<stop stop-color="#06BD51"/>
<stop offset="0.72" stop-color="#02B24C"/>
<stop offset="0.8" stop-color="#01B04B"/>
</radialGradient>
<radialGradient id="paint3_radial_220_43" cx="0" cy="0" r="1" gradientUnits="userSpaceOnUse" gradientTransform="translate(9.17705 1.02783) rotate(-2.33828) scale(30.1262 22.7568)">
<stop stop-color="#08BF52"/>
<stop offset="0.56" stop-color="#04B44D"/>
<stop offset="0.8" stop-color="#01AD4A"/>
</radialGradient>
<radialGradient id="paint4_radial_220_43" cx="0" cy="0" r="1" gradientUnits="userSpaceOnUse" gradientTransform="translate(9.16564 1.03737) rotate(-2.33828) scale(30.0629 22.709)">
<stop stop-color="#0AC053"/>
<stop offset="0.48" stop-color="#05B54E"/>
<stop offset="0.8" stop-color="#01AA49"/>
</radialGradient>
<radialGradient id="paint5_radial_220_43" cx="0" cy="0" r="1" gradientUnits="userSpaceOnUse" gradientTransform="translate(9.15241 1.06023) rotate(-1.75414) scale(29.9867 22.6587)">
<stop stop-color="#0BC253"/>
<stop offset="0.42" stop-color="#07B74E"/>
<stop offset="0.8" stop-color="#01A848"/>
</radialGradient>
<radialGradient id="paint6_radial_220_43" cx="0" cy="0" r="1" gradientUnits="userSpaceOnUse" gradientTransform="translate(9.13495 1.0662) rotate(-1.75413) scale(29.9235 22.611)">
<stop stop-color="#0DC354"/>
<stop offset="0.37" stop-color="#08B84F"/>
<stop offset="0.8" stop-color="#01A546"/>
</radialGradient>
<radialGradient id="paint7_radial_220_43" cx="0" cy="0" r="1" gradientUnits="userSpaceOnUse" gradientTransform="translate(9.35725 1.07249) rotate(-1.75414) scale(29.8603 22.5541)">
<stop stop-color="#0FC555"/>
<stop offset="0.33" stop-color="#0ABA50"/>
<stop offset="0.8" stop-color="#01A245"/>
</radialGradient>
<radialGradient id="paint8_radial_220_43" cx="0" cy="0" r="1" gradientUnits="userSpaceOnUse" gradientTransform="translate(9.33515 1.08294) rotate(-1.73678) scale(30.0948 22.5064)">
<stop stop-color="#11C656"/>
<stop offset="0.3" stop-color="#0CBB51"/>
<stop offset="0.8" stop-color="#019F44"/>
</radialGradient>
<radialGradient id="paint9_radial_220_43" cx="0" cy="0" r="1" gradientUnits="userSpaceOnUse" gradientTransform="translate(9.32771 1.09407) rotate(-1.73678) scale(30.0309 22.4586)">
<stop stop-color="#12C856"/>
<stop offset="0.28" stop-color="#0EBD51"/>
<stop offset="0.77" stop-color="#029E44"/>
<stop offset="0.8" stop-color="#019C43"/>
</radialGradient>
<radialGradient id="paint10_radial_220_43" cx="0" cy="0" r="1" gradientUnits="userSpaceOnUse" gradientTransform="translate(9.32041 1.1092) rotate(-1.73678) scale(29.965 22.4093)">
<stop stop-color="#14C957"/>
<stop offset="0.26" stop-color="#0FBE52"/>
<stop offset="0.72" stop-color="#049F44"/>
<stop offset="0.8" stop-color="#019941"/>
</radialGradient>
<radialGradient id="paint11_radial_220_43" cx="0" cy="0" r="1" gradientUnits="userSpaceOnUse" gradientTransform="translate(9.30666 1.12729) rotate(-1.73678) scale(29.9011 22.3616)">
<stop stop-color="#16CB58"/>
<stop offset="0.24" stop-color="#11C053"/>
<stop offset="0.66" stop-color="#06A145"/>
<stop offset="0.8" stop-color="#019640"/>
</radialGradient>
<radialGradient id="paint12_radial_220_43" cx="0" cy="0" r="1" gradientUnits="userSpaceOnUse" gradientTransform="translate(9.29091 1.14726) rotate(-1.73678) scale(29.8373 22.3139)">
<stop stop-color="#18CC59"/>
<stop offset="0.23" stop-color="#13C154"/>
<stop offset="0.62" stop-color="#07A246"/>
<stop offset="0.8" stop-color="#01933F"/>
</radialGradient>
<radialGradient id="paint13_radial_220_43" cx="0" cy="0" r="1" gradientUnits="userSpaceOnUse" gradientTransform="translate(9.27508 1.17087) rotate(-1.73678) scale(29.7713 22.2645)">
<stop stop-color="#19CD59"/>
<stop offset="0.21" stop-color="#15C254"/>
<stop offset="0.59" stop-color="#09A347"/>
<stop offset="0.8" stop-color="#01903E"/>
</radialGradient>
<radialGradient id="paint14_radial_220_43" cx="0" cy="0" r="1" gradientUnits="userSpaceOnUse" gradientTransform="translate(9.25512 1.19643) rotate(-1.73678) scale(29.7075 22.2168)">
<stop stop-color="#1BCF5A"/>
<stop offset="0.2" stop-color="#17C455"/>
<stop offset="0.56" stop-color="#0BA547"/>
<stop offset="0.8" stop-color="#018D3C"/>
</radialGradient>
<radialGradient id="paint15_radial_220_43" cx="0" cy="0" r="1" gradientUnits="userSpaceOnUse" gradientTransform="translate(9.23305 1.10315) rotate(-1.15805) scale(29.6361 22.1688)">
<stop stop-color="#1DD05B"/>
<stop offset="0.19" stop-color="#18C556"/>
<stop offset="0.54" stop-color="#0CA648"/>
<stop offset="0.8" stop-color="#018B3B"/>
</radialGradient>
<radialGradient id="paint16_radial_220_43" cx="0" cy="0" r="1" gradientUnits="userSpaceOnUse" gradientTransform="translate(9.20894 1.12262) rotate(-1.15805) scale(29.5702 22.1195)">
<stop stop-color="#1ED25B"/>
<stop offset="0.18" stop-color="#1AC756"/>
<stop offset="0.51" stop-color="#0EA848"/>
<stop offset="0.8" stop-color="#01883A"/>
</radialGradient>
<radialGradient id="paint17_radial_220_43" cx="0" cy="0" r="1" gradientUnits="userSpaceOnUse" gradientTransform="translate(9.18484 1.14134) rotate(-1.15805) scale(29.5064 22.0717)">
<stop stop-color="#20D35C"/>
<stop offset="0.18" stop-color="#1BC857"/>
<stop offset="0.49" stop-color="#0FA949"/>
<stop offset="0.8" stop-color="#018539"/>
</radialGradient>
<radialGradient id="paint18_radial_220_43" cx="0" cy="0" r="1" gradientUnits="userSpaceOnUse" gradientTransform="translate(9.15647 1.16776) rotate(-1.15805) scale(29.4426 22.024)">
<stop stop-color="#22D55D"/>
<stop offset="0.17" stop-color="#1DCA58"/>
<stop offset="0.47" stop-color="#11AB4A"/>
<stop offset="0.8" stop-color="#018237"/>
</radialGradient>
<radialGradient id="paint19_radial_220_43" cx="0" cy="0" r="1" gradientUnits="userSpaceOnUse" gradientTransform="translate(9.12384 1.19244) rotate(-1.15805) scale(29.3766 21.9747)">
<stop stop-color="#24D65E"/>
<stop offset="0.16" stop-color="#1FCB59"/>
<stop offset="0.45" stop-color="#13AC4B"/>
<stop offset="0.8" stop-color="#017F36"/>
</radialGradient>
<radialGradient id="paint20_radial_220_43" cx="0" cy="0" r="1" gradientUnits="userSpaceOnUse" gradientTransform="translate(9.0892 1.22201) rotate(-1.15805) scale(29.3128 21.9269)">
<stop stop-color="#25D85E"/>
<stop offset="0.15" stop-color="#20CD59"/>
<stop offset="0.43" stop-color="#14AE4B"/>
<stop offset="0.79" stop-color="#017D36"/>
<stop offset="0.8" stop-color="#007C35"/>
</radialGradient>
<radialGradient id="paint21_radial_220_43" cx="0" cy="0" r="1" gradientUnits="userSpaceOnUse" gradientTransform="translate(9.72655 1.2558) rotate(-1.15805) scale(29.249 21.8733)">
<stop stop-color="#27D95F"/>
<stop offset="0.15" stop-color="#22CE5A"/>
<stop offset="0.42" stop-color="#16AF4C"/>
<stop offset="0.77" stop-color="#027E36"/>
<stop offset="0.8" stop-color="#007934"/>
</radialGradient>
<radialGradient id="paint22_radial_220_43" cx="0" cy="0" r="1" gradientUnits="userSpaceOnUse" gradientTransform="translate(9.50871 1.29054) rotate(-1.1467) scale(29.4719 21.8241)">
<stop stop-color="#29DB60"/>
<stop offset="0.14" stop-color="#24D05B"/>
<stop offset="0.4" stop-color="#18B14D"/>
<stop offset="0.74" stop-color="#048037"/>
<stop offset="0.8" stop-color="#007632"/>
</radialGradient>
<radialGradient id="paint23_radial_220_43" cx="0" cy="0" r="1" gradientUnits="userSpaceOnUse" gradientTransform="translate(9.48302 1.32908) rotate(-1.1467) scale(29.4074 21.7763)">
<stop stop-color="#2BDC61"/>
<stop offset="0.14" stop-color="#26D15C"/>
<stop offset="0.39" stop-color="#1AB24E"/>
<stop offset="0.71" stop-color="#068138"/>
<stop offset="0.8" stop-color="#007331"/>
</radialGradient>
<radialGradient id="paint24_radial_220_43" cx="0" cy="0" r="1" gradientUnits="userSpaceOnUse" gradientTransform="translate(9.45733 1.3714) rotate(-1.1467) scale(29.3408 21.727)">
<stop stop-color="#2CDE61"/>
<stop offset="0.13" stop-color="#27D35C"/>
<stop offset="0.37" stop-color="#1BB44E"/>
<stop offset="0.69" stop-color="#088339"/>
<stop offset="0.8" stop-color="#007030"/>
</radialGradient>
<radialGradient id="paint25_radial_220_43" cx="0" cy="0" r="1" gradientUnits="userSpaceOnUse" gradientTransform="translate(9.42943 1.15655) rotate(-0.573406) scale(29.272 21.6797)">
<stop stop-color="#2EDF62"/>
<stop offset="0.13" stop-color="#29D45D"/>
<stop offset="0.37" stop-color="#1DB54F"/>
<stop offset="0.67" stop-color="#098439"/>
<stop offset="0.8" stop-color="#006E2F"/>
</radialGradient>
<radialGradient id="paint26_radial_220_43" cx="0" cy="0" r="1" gradientUnits="userSpaceOnUse" gradientTransform="translate(9.39714 1.19026) rotate(-0.573407) scale(29.2076 21.6319)">
<stop stop-color="#30E163"/>
<stop offset="0.13" stop-color="#2BD65E"/>
<stop offset="0.35" stop-color="#1FB750"/>
<stop offset="0.65" stop-color="#0B8639"/>
<stop offset="0.8" stop-color="#006B2D"/>
</radialGradient>
<radialGradient id="paint27_radial_220_43" cx="0" cy="0" r="1" gradientUnits="userSpaceOnUse" gradientTransform="translate(9.36492 1.22732) rotate(-0.573407) scale(29.1409 21.5826)">
<stop stop-color="#31E263"/>
<stop offset="0.12" stop-color="#2CD75E"/>
<stop offset="0.34" stop-color="#20B850"/>
<stop offset="0.63" stop-color="#0D873A"/>
<stop offset="0.8" stop-color="#00682C"/>
</radialGradient>
<radialGradient id="paint28_radial_220_43" cx="0" cy="0" r="1" gradientUnits="userSpaceOnUse" gradientTransform="translate(9.32848 1.26634) rotate(-0.573407) scale(29.0765 21.5349)">
<stop stop-color="#33E364"/>
<stop offset="0.12" stop-color="#2ED85F"/>
<stop offset="0.34" stop-color="#22B951"/>
<stop offset="0.62" stop-color="#0E883B"/>
<stop offset="0.8" stop-color="#00652B"/>
</radialGradient>
<radialGradient id="paint29_radial_220_43" cx="0" cy="0" r="1" gradientUnits="userSpaceOnUse" gradientTransform="translate(9.28987 1.30889) rotate(-0.573407) scale(29.0099 21.4856)">
<stop stop-color="#35E565"/>
<stop offset="0.12" stop-color="#30DA60"/>
<stop offset="0.33" stop-color="#24BB52"/>
<stop offset="0.6" stop-color="#108A3C"/>
<stop offset="0.8" stop-color="#00622A"/>
</radialGradient>
<radialGradient id="paint30_radial_220_43" cx="0" cy="0" r="1" gradientUnits="userSpaceOnUse" gradientTransform="translate(9.25126 1.35242) rotate(-0.573407) scale(28.9455 21.4378)">
<stop stop-color="#37E666"/>
<stop offset="0.11" stop-color="#32DB61"/>
<stop offset="0.32" stop-color="#26BC53"/>
<stop offset="0.59" stop-color="#128B3C"/>
<stop offset="0.8" stop-color="#005F28"/>
</radialGradient>
<radialGradient id="paint31_radial_220_43" cx="0" cy="0" r="1" gradientUnits="userSpaceOnUse" gradientTransform="translate(9.20818 1.40052) rotate(-0.573407) scale(28.8789 21.3885)">
<stop stop-color="#38E866"/>
<stop offset="0.11" stop-color="#33DD61"/>
<stop offset="0.31" stop-color="#27BE53"/>
<stop offset="0.57" stop-color="#148D3D"/>
<stop offset="0.8" stop-color="#005C27"/>
</radialGradient>
<radialGradient id="paint32_radial_220_43" cx="0" cy="0" r="1" gradientUnits="userSpaceOnUse" gradientTransform="translate(9.16319 1.45125) rotate(-0.573407) scale(28.8145 21.3408)">
<stop stop-color="#3AE967"/>
<stop offset="0.11" stop-color="#35DE62"/>
<stop offset="0.3" stop-color="#29BF54"/>
<stop offset="0.56" stop-color="#158E3E"/>
<stop offset="0.8" stop-color="#005926"/>
</radialGradient>
<radialGradient id="paint33_radial_220_43" cx="0" cy="0" r="1" gradientUnits="userSpaceOnUse" gradientTransform="translate(9.11801 1.50371) rotate(-0.573407) scale(28.75 21.2931)">
<stop stop-color="#3CEB68"/>
<stop offset="0.11" stop-color="#37E063"/>
<stop offset="0.29" stop-color="#2BC155"/>
<stop offset="0.54" stop-color="#17903F"/>
<stop offset="0.8" stop-color="#005625"/>
</radialGradient>
<radialGradient id="paint34_radial_220_43" cx="0" cy="0" r="1" gradientUnits="userSpaceOnUse" gradientTransform="translate(9.06649 1.56003) rotate(-0.573407) scale(28.6834 21.2438)">
<stop stop-color="#3EEC69"/>
<stop offset="0.1" stop-color="#39E164"/>
<stop offset="0.29" stop-color="#2DC256"/>
<stop offset="0.53" stop-color="#19913F"/>
<stop offset="0.8" stop-color="#005323"/>
</radialGradient>
<radialGradient id="paint35_radial_220_43" cx="0" cy="0" r="1" gradientUnits="userSpaceOnUse" gradientTransform="translate(9.01487 1.22552) scale(28.6176 21.1943)">
<stop stop-color="#3FEE69"/>
<stop offset="0.1" stop-color="#3AE364"/>
<stop offset="0.28" stop-color="#2EC456"/>
<stop offset="0.52" stop-color="#1A9340"/>
<stop offset="0.8" stop-color="#005122"/>
</radialGradient>
<radialGradient id="paint36_radial_220_43" cx="0" cy="0" r="1" gradientUnits="userSpaceOnUse" gradientTransform="translate(9.69046 1.27261) scale(28.8309 21.145)">
<stop stop-color="#41EF6A"/>
<stop offset="0.1" stop-color="#3CE465"/>
<stop offset="0.28" stop-color="#30C557"/>
<stop offset="0.51" stop-color="#1C9441"/>
<stop offset="0.79" stop-color="#015022"/>
<stop offset="0.8" stop-color="#004E21"/>
</radialGradient>
<radialGradient id="paint37_radial_220_43" cx="0" cy="0" r="1" gradientUnits="userSpaceOnUse" gradientTransform="translate(9.64879 1.32311) scale(28.768 21.0989)">
<stop stop-color="#43F16B"/>
<stop offset="0.1" stop-color="#3EE666"/>
<stop offset="0.27" stop-color="#32C758"/>
<stop offset="0.5" stop-color="#1E9642"/>
<stop offset="0.77" stop-color="#035223"/>
<stop offset="0.8" stop-color="#004B20"/>
</radialGradient>
<radialGradient id="paint38_radial_220_43" cx="0" cy="0" r="1" gradientUnits="userSpaceOnUse" gradientTransform="translate(9.60934 1.37714) scale(28.7029 21.0512)">
<stop stop-color="#45F26C"/>
<stop offset="0.1" stop-color="#40E767"/>
<stop offset="0.27" stop-color="#34C859"/>
<stop offset="0.49" stop-color="#209742"/>
<stop offset="0.76" stop-color="#055323"/>
<stop offset="0.8" stop-color="#00481E"/>
</radialGradient>
<radialGradient id="paint39_radial_220_43" cx="0" cy="0" r="1" gradientUnits="userSpaceOnUse" gradientTransform="translate(9.56766 1.43504) scale(28.6357 21.0018)">
<stop stop-color="#46F46C"/>
<stop offset="0.09" stop-color="#41E967"/>
<stop offset="0.26" stop-color="#35CA59"/>
<stop offset="0.48" stop-color="#229943"/>
<stop offset="0.74" stop-color="#065524"/>
<stop offset="0.8" stop-color="#00451D"/>
</radialGradient>
<radialGradient id="paint40_radial_220_43" cx="0" cy="0" r="1" gradientUnits="userSpaceOnUse" gradientTransform="translate(9.52798 1.4958) scale(28.5685 20.9525)">
<stop stop-color="#48F56D"/>
<stop offset="0.09" stop-color="#43EA68"/>
<stop offset="0.25" stop-color="#37CB5A"/>
<stop offset="0.47" stop-color="#239A44"/>
<stop offset="0.73" stop-color="#085625"/>
<stop offset="0.8" stop-color="#00421C"/>
</radialGradient>
<linearGradient id="paint41_linear_220_43" x1="9.99275" y1="16.5611" x2="7.42741" y2="-1.45943" gradientUnits="userSpaceOnUse">
<stop offset="0.1" stop-color="#FF8475"/>
<stop offset="0.37" stop-color="#E84E43"/>
<stop offset="0.6" stop-color="#D6261F"/>
<stop offset="0.79" stop-color="#CC0E08"/>
<stop offset="0.9" stop-color="#C80500"/>
</linearGradient>
</defs>
</svg>
